<?xml version="1.0" encoding="UTF-8"?>
<svg id="Layer_1" xmlns="http://www.w3.org/2000/svg" viewBox="0 0 940.56 785.54">
  <defs>
    <style>
      .cls-1 {
        fill: #9e6427;
      }

      .cls-1, .cls-2, .cls-3, .cls-4, .cls-5, .cls-6, .cls-7, .cls-8 {
        stroke: #231f20;
        stroke-miterlimit: 10;
      }

      .cls-2 {
        fill: #cececd;
      }

      .cls-3 {
        fill: #fff;
      }

      .cls-9, .cls-7 {
        fill: #231f20;
      }

      .cls-4 {
        fill: #925d25;
      }

      .cls-5 {
        fill: #351212;
      }

      .cls-8 {
        fill: none;
      }
    </style>
  </defs>
  <path class="cls-1" d="M620.86,395.93c-5.11,61.04-41.98,112.16-91.71,142.88-23.28,14.38-49.39,24.27-76.36,28.61-7.49,1.21-15.04,2-22.61,2.32-10.22.44-20.43.06-30.55-1.09-28.19-3.17-55.57-12.32-80.1-26.25-54.44-30.91-94.9-85.39-98.98-150.69-6.99-111.5,95.06-206.72,206.48-203.33,108.33,3.33,202.9,99.2,193.84,207.55Z"/>
  <path class="cls-3" d="M862.81,342.75c-9.05.72-11.22-2.28-19.85-.22-1.5.37-2.67.75-3.66,1.08-9.2,21.65-48.27,52.43-89.32,53.3-14.84.31-27.43-3.11-32.2-4.5-7.94-2.31-33.84-9.87-54.19-32.24-10.04-11.03-11.9-18.17-21.68-21-11.44-3.3-17.27,4-26.87-.13-11.19-4.81-18.89-21.44-13.88-31.89,3.79-7.9,13.89-10.22,16.15-10.68,17.79-3.63,37.31,11.05,75.63,40.56.59.45,1.05.81,1.37,1.04.58.39,1.51.97,2.65,1.66,10.28,6.25,52.32,31.84,87.88,17.74,6.32-2.5,16.94-6.71,22.29-16.95,3.93-7.5,2.67-13.82,4.53-17.77-.28-8.18,4.69-14.52,6.85-17.31,8.44-10.78,16.71-7.83,34.32-16.7,1.43-.74,4.95-2.55,7.65-1.11,1.47.8,2.73,2.56,2.42,4.06-.33,1.69-2.53,2.57-7.66,4.08-9.64,2.8-10.71,2.26-14.46,3.86-6.1,2.62-11.11,7.43-10.43,8.85.45.94,3.44.42,5.92,0,4.36-.75,7.53-2.16,8.59-2.67,11.55-5.26,14.83-8,20.24-7.43.4.06,3.48.41,3.58,1.33.05.38-.35,1.12-6.63,3.4-5.34,1.93-5.66,1.64-8.9,2.91-5.7,2.25-5.23,3.4-9.55,4.57-3.67,1.02-6.23.8-6.68,2.2-.46,1.33,1.39,3.05,1.69,3.31,7.48,6.94,37.45-10.42,40.86-5.28.74,1.12-.47,2.17.43,6.62.54,2.71,1.3,3.91.65,5.49-.57,1.37-2.11,2.74-3.45,2.55-2.46-.36-1.43-5.67-4.55-8.35-3.4-2.92-8.03.37-27.38,7.45-.94.34-2.65.96-2.8,2.1-.29,2.11,5.08,5.06,10,6.2,10.98,2.54,19.98-1.84,19.98-1.84,1.6-.76,3.78-2.05,6.22-1.38,1.97.53,4.22,2.33,4.2,4.12-.01,3.87-10.42,8.21-19.96,8.97Z"/>
  <path class="cls-3" d="M360.6,116.63c.06-.05-.02-.2-.2-1.07-.12-.59-.21-1.09-.26-1.46,0,0-.56-3.24-.96-6.51-2.04-16.55-.08-32.54-.08-32.54.49-3.97,1.14-9.37,3.01-16.03,2.28-8.14,7.28-25.19,22.54-39.07,2.25-2.05,11.94-10.6,27.55-15.53,6.4-2.02,29.49-8.93,53.6,2.5,14.36,6.81,22.39,16.95,25.55,21.04,16.42,21.23,16.06,47.46,16.03,58.11-.04,13.25-2.32,28.73-.5,29.05,1.37.25,2.36-8.61,8.52-11.02,3.85-1.51,8.92-.19,12.02,2.5,10.21,8.86.26,33.66-1.5,38.07,0,0-4.03,10.04-14.03,19.04-2.6,2.34-5.31,4.29-7.51,3.51-3.13-1.11-3.42-7.1-4.01-7.01-.73.11.77,9.27,0,20.04-.41,5.71-.74,9.81-3.01,14.53-1.44,3-3.18,5.25-9.02,11.02-7.97,7.89-11.96,11.83-16.53,15.03-4.48,3.13-11.77,8.13-22.54,11.02-4.62,1.24-10.95,2.93-19.04,2-3.81-.44-7.65-1.41-20.54-7.51-11.92-5.64-17.89-8.47-21.54-11.02-7.26-5.07-18.9-13.21-23.54-27.05-2.11-6.3-5.3-26.06-4.01-19.54-2.53-.65-5.97-1.98-8.52-5.01-2.57-3.07-2.6-5.94-4.58-11.46-2.04-5.67-3.26-6.13-5.44-11.08-.78-1.79-6.1-14.34-3.01-28.55.65-2.98,2.19-10.05,5.51-10.52,1.65-.23,4.13,2.35,9.02,7.51,3.01,3.17,6.66,7.29,7.01,7.01Z"/>
  <path class="cls-1" d="M523.54,760.83c-1.37.63-14.94,6.48-23.3.4-14.07-10.2,5.92-40.02,1.86-89.65-1.8-21.85-7.29-35.98-8.82-46.58-22.39-13.31-38.06-38.95-40.48-57.59,26.98-4.34,53.08-14.24,76.36-28.61,16.38,12.5,26.75,52.03,20.01,76.04,21.44,37.94,11.87,129.21-25.62,145.98Z"/>
  <path class="cls-3" d="M230.89,345.08c-8.73,5.76-15.75-.4-26.43,4.88-9.55,4.72-4.99,12.68-17.63,24.48-3.21,3-7.29,6.13-11.76,12.47-1.74,2.46-3.32,5.07-5.18,8.83-3.58,7.23-8.81,17.78-10.45,31.37-1.18,9.63-.07,16.92,1.23,25.46,1.16,7.65,2.64,13,3.85,17.01,1.41.17,2.87.52,4.46,1.09,7.15,2.58,19.65.01,22.3,9.88,2.15,7.98,3.86,19.12-1.94,18.9-6.13-.23-19.69-2.5-22.93-.77-1.72.9-1.71,4.18-.7,5.12,1.12,1.06,2.89-1.24,4.95-.18,4.25,2.22,7.81,18.01,3.72,18.86-4.09.87-14.44-13.5-16.74-12.36-1.88.93,5.07,10.5,2.42,14.33-2.04,2.94-9.2,1.72-12.34-1.8-3.53-3.96-1.6-10.42-2.65-10.94-.78-.42-1.24,3.62-4.04,7-2.76,3.33-7.75,6-10.31,3.96-1.64-1.29-2.21-4.45-1.9-6.53.85-5.6,8.24-4.7,7.57-7.77-.64-3.07-8.19-4.69-10.47-9.3-.58-1.2-1.51-3.97,4.8-11.25-7.7-5.92-7.7-20.06-7.48-47.69.25-27.55.54-41.63,8.25-56.35,6.62-12.61,15.52-20.79,21.39-25.41,4.9-8.13,35-57.02,68.27-54.77,3.25.22,12.86.87,17.77,7.66,6.78,9.4,2.13,27.14-8.04,33.84Z"/>
  <path class="cls-1" d="M355.14,684.85c4.85,49.55,29.84,75.33,17.81,87.87-7.15,7.49-21.54,4.12-23,3.76-45.39-11.17-72.41-123.69-42.97-153.07-11.99-20.13-3.55-63.52,12.54-81.01,24.53,13.93,51.91,23.08,80.1,26.25-3.21,20.07-21.06,47.47-45.88,59.34,4.64,10.98-1.45,27.74,1.39,56.86Z"/>
  <path class="cls-2" d="M489.52,205.9c-41.56,2.05-39.2-9.86-98.5-5.79-25.91,1.77-65.86,4.51-67.95,16.86-.61,3.6,2.5,6.62,5.79,11.06,8.92,12.05,22.79,16.37,35.29,18.96,54.85,11.37,109.56-3.69,109.56-3.69,25.43-8.48,43.86-7.5,46.35-17.38,1.12-4.44-.92-9.52-3.43-12.67-6.86-8.59-21.06-7.64-27.12-7.35Z"/>
  <g>
    <path class="cls-6" d="M373.56,156.59c31.56-26.92,75.14-23.54,101.47-11.52,4.95,2.26,12.24,5.67,19.12,12.99,3.36,3.57,16.9,19.02,15.2,60.29-1.53,37.01-2.94,70.98-30.64,92.89-36.73,29.06-98.5,20.06-114.71-5.39-2.6-4.07-5.1-11.95-10.11-27.7-4.15-13.04-7.6-24.08-9.31-38.24-1.06-8.76-2.66-20.35-.25-33.09,5.6-29.59,26.11-47.58,29.22-50.24Z"/>
    <path class="cls-3" d="M434.41,159.76c-15.17-3.62-31.3,3.01-31.13,7.11.29,7.1,49.8,14.23,52.21,7.35,1.26-3.59-10.04-11.83-21.08-14.46Z"/>
  </g>
  <path class="cls-4" d="M248.15,298.5c-6.66-4.95-18.94-10.01-28.05-4.76-1.37.79-4.79,3.04-8.65,11.48-10.18,22.27-5.11,47.58,1.11,49.17,1.09.28,5.76.73,6.13.77,2.47.24,4.26.32,4.89.36,6.24.35,11.31,1.87,13.54,2.04,9.74.75,27.47-19.48,23.55-39.6-2.24-11.48-10.58-18.03-12.51-19.46Z"/>
  <path class="cls-4" d="M590.81,339.99c7.17,4.18,19.94,7.82,28.4,1.59,1.28-.94,4.42-3.55,7.32-12.38,7.63-23.27-.24-47.85-6.61-48.74-1.12-.16-5.81-.08-6.17-.08-2.48.04-4.27.15-4.9.19-6.24.35-11.45-.59-13.69-.51-9.76.34-25.12,22.43-18.97,41.98,3.51,11.16,12.53,16.73,14.61,17.94Z"/>
  <path class="cls-8" d="M383.98,77.16c17.1-11.89,35.74-9.43,41.88-.39,5.44,8.01,2.78,23.73-3.89,26.95-2.72,1.31-5.76.38-8.1,3.07-1.67,1.93-2.58,5.25-1.15,7.66,1.21,2.04,4.01,3.32,5.32,2.52.84-.51.32-1.3,1.52-2.67.81-.92,1.77-1.31,3.69-2.11.15-.06.29-.12.48-.09.81.12.99,1.66,1.65,3.13.38.84,1.27,2.82,2.44,3.11,2.47.61,4.63-6.68,8.29-6.5,1.4.07,2.6,1.21,4.55,3.06,2.27,2.16,2.33,3.26,3.23,3.35,2.72.27,7.68-9.09,5-12.49-2.06-2.61-6.81.57-10.06-2.15-3.68-3.08-3.15-11.81.67-17.4,4.58-6.69,13.08-7.71,20.62-8.62,4.88-.59,12.93-.86,22.7,2.14"/>
  <path class="cls-8" d="M418.63,77.72c-.02-2.42-7.68-4.81-14.33-4.69-7.06.12-15.02,3.12-14.89,5.59.13,2.57,8.94,4.74,16.42,4.12,5.56-.46,12.82-2.66,12.8-5.02Z"/>
  <path class="cls-8" d="M446.98,85.53c.47-3.04,11.79-3.36,19.68-3.59,11.34-.33,12.63,1.55,12.96,2.35.91,2.22-1.93,5.24-2.25,5.58-5.1,5.42-14.63,3.5-17.06,3.01-5.98-1.21-13.73-4.74-13.33-7.35Z"/>
  <path class="cls-8" d="M394.98,46.56c2.13-.52,5.53-1.2,9.74-1.32,9.43-.26,14.21,2.52,18.17-.53,2.49-1.91,1.99-4.08,4.48-5,2.56-.95,5.25.56,9.22,2.9,13.56,7.99,12.8,8.4,14.75,8.69,7.14,1.07,9.88-5.5,18.44-5,4.42.26,7.94,2.25,10.27,3.95"/>
  <path class="cls-8" d="M479.25,41.56c-4.97-2.19-8.47-1.98-10.8-1.32-3.01.85-4.12,2.47-7.11,2.37-2.46-.08-2.61-1.19-6.85-2.63-4.71-1.6-5.47-.55-8.16-2.11-3.23-1.87-2.73-3.72-5.53-5-1.54-.71-2.39-.47-8.95.26-8.06.89-9.63.85-10.8,2.37-1.63,2.13-.26,4.47-1.84,5.53-1.49.99-3.18-.73-7.64-1.84-4.43-1.11-8.21-.76-10.8-.53-2.53.23-4.6.68-6.06,1.05"/>
  <path class="cls-8" d="M396.56,31.82c3.85.33,9.72.46,16.59-1.05,6.12-1.34,6.27-2.5,11.59-3.42,3.17-.55,12.32-2.14,21.33,1.84,4.31,1.91,5.09,3.54,9.22,4.21,3.75.61,4.19-.56,10.27,0,3.87.36,7.09,1.15,8.69,1.58,1.39.38,2.55.75,3.42,1.05"/>
  <path class="cls-9" d="M465.27,83.59c-1.6,0-2.74,0-3.69.71-1.7,1.27-2.39,4.51-1.28,6.25,1.54,2.43,6.07,1.19,8.44-.17,1.41-.81,3.74-2.64,3.41-4.12-.26-1.15-2.04-1.69-3.72-2.2-1.34-.4-2.45-.47-3.16-.47Z"/>
  <path class="cls-9" d="M404.08,74.41c-1.28.01-2.19.02-2.95.67-1.35,1.16-1.87,4.06-.97,5.61,1.25,2.16,4.87,1.02,6.76-.22,1.12-.74,2.97-2.4,2.69-3.72-.22-1.03-1.65-1.5-3-1.94-1.07-.35-1.97-.4-2.53-.4Z"/>
  <path class="cls-8" d="M506.65,102.08c-.02,1.78-.34,8.9-.38,11.62,0,.2-.55,3.86-.55,4.04,0,0-.49,4.69-.53,7.05-.19,11.13-4.41,16.99-4.21,25.35.09,3.57-.79,6.83-.79,6.83.06,1.36.13,2.48.17,3.25"/>
  <path class="cls-8" d="M356.66,154.02c-2.51-7.91-5.7-11.17-8.3-12.64-.91-.52-2.87-1.45-3.16-3.16-.26-1.55,1.05-2.5,1.69-5.71.2-.99.24-1.71.28-2.59.33-6.31-3-10.93-1.58-12.25,1.02-.95,3.94.35,5.53,1.58,3.38,2.61,4.26,7.56,4.7,10.06.02.1.04.22.04.22.32,1.92.37,3.43.39,4.32.06,3.15.08,4.73-.39,5.16-1,.91-3.1.71-4.35-.4-1.41-1.25-1.67-3.63-.4-5.53"/>
  <path class="cls-8" d="M508.73,154c-9.6.84-5.8-9.81,8.3-12.64,1.03-.21,2.87-1.45,3.16-3.16.26-1.55-1.05-2.5-1.69-5.71-.2-.99-.24-1.71-.28-2.59-.33-6.31,3-10.93,1.58-12.25-1.02-.95-3.94.35-5.53,1.58-3.38,2.61-4.26,7.56-4.7,10.06-.02.1-.04.22-.04.22-.32,1.92-.37,3.43-.39,4.32-.06,3.15-.08,4.73.39,5.16,1,.91,3.1.71,4.35-.4,1.41-1.25,1.67-3.63.4-5.53"/>
  <g>
    <path class="cls-7" d="M486.82,726.54c2.84-3.53,6.98-8.86,13.05-9.21,12.79-.75,17.93,21.4,29.99,20.8,9.73-.48,15.57-15.35,19.87-13.39,2.89,1.32-.11,7.88,3.31,12.64,5.76,8,25.16,4.13,39.13,0,22.42-6.63,26.98-21.89,37.92-19.87,14.74,2.72,28.55,34.49,18.66,50.57-7.86,12.77-22.98,3.15-88.34,9.47-20.36,1.97-44.43,5.38-64.57-6.46-5-2.94-10.26-7.11-13.24-13.79-4.37-9.8-2.62-22.26,4.21-30.76Z"/>
    <path class="cls-3" d="M535.43,749.72c.35-.87,7.05.8,14.75,2.71,8.76,2.17,14.31,4.36,15.35,2.71.95-1.51-2.99-4.52-1.96-6.32,1.14-1.97,7.79-1.7,9.48,1.35,1.57,2.84-1.23,7.97-4.67,10.23-10.58,6.99-33.65-8.96-32.96-10.69Z"/>
  </g>
  <g>
    <path class="cls-7" d="M297.67,732.02c1.34-1.66,5.68-7.07,13.05-9.21,21.85-6.36,46,25.64,53.17,20.05,3.79-2.95-1.85-12.66,2.08-15.56,5.75-4.25,18.91,15.72,37.05,15.56,18.91-.17,25.09-22.23,37.92-19.87,14.74,2.72,28.55,34.49,18.66,50.57-7.86,12.77-22.98,3.15-88.34,9.47-20.36,1.97-44.43,5.38-64.57-6.46-5-2.94-10.26-7.11-13.24-13.79-4.37-9.8-2.62-22.26,4.21-30.76Z"/>
    <path class="cls-3" d="M346.28,755.2c.35-.87,7.05.8,14.75,2.71,8.76,2.17,14.31,4.36,15.35,2.71.95-1.51-2.99-4.52-1.96-6.32,1.14-1.97,7.79-1.7,9.48,1.35,1.57,2.84-1.23,7.97-4.67,10.23-10.58,6.99-33.65-8.96-32.96-10.69Z"/>
  </g>
  <g>
    <path class="cls-3" d="M883.33,316.61c.15,2.27.62,5.62,2.14,9.34.21.52,3.17,7.58,8.92,11.99,9.21,7.06,25.74,7.44,36.34-2.17,11.18-10.13,9.29-25.32,9.09-26.73"/>
    <path class="cls-3" d="M883.35,316.09c-.68-2.14,13.31-8.29,28.65-9.74,13.4-1.27,27.74,1.04,27.92,3.49.16,2.24-11.61,4.48-17.11,5.53-10.64,2.02-18.91,1.93-28.49,1.78-7.13-.12-10.7-.19-10.97-1.05Z"/>
    <path class="cls-3" d="M882.63,320.87c-.65-.47-1.32-.6-1.8-.67-2.64-.38,3.91-.75,2.77.32-2.16,2.03-9.13,9.89-3.86,13.87,4.28,3.24,10.39,3.72,11.07,2.37.27-.54-.39-1.19-1.68-3.24-1.5-2.39-2.41-4.09-3.22-6.23-.62-1.62-1.1-2.68-2.06-4.81-.16-.35-.49-1.07-1.23-1.61Z"/>
    <path class="cls-5" d="M885.17,314.84c-.04-.94,4.41-1.01,5.01-1.12,3.79-.71,5.52-.79,8.84-1.27.38-.06.91-.14,1.76-.24,1.28-.14,2.75-1.11,3.03-1.12,2.03-.1,4.16.34,5.53.11,1.43-.25,16.25-1.96,11.48-1.68-.25.01,6.16-.35,13.15-.46,2.45-.04,4.33-.03,4.41.4.14.77-5.65,2.4-6.23,2.57-2.52.7-4.48,1.03-5.42,1.19-7.72,1.27-11.58,1.9-13.89,2.11-3.19.28-5.58.35-10.03.46-2.54.06-3.81.09-4.57,0-.28-.04-1.17-.16-2.35-.11-.58.03-1.02.09-1.21.11-2.03.28-5.05.92-8.27-.13-.62-.2-1.21-.46-1.22-.79Z"/>
  </g>
</svg>