<?xml version="1.0" encoding="UTF-8"?>
<svg id="Layer_1" data-name="Layer 1" xmlns="http://www.w3.org/2000/svg" viewBox="0 0 752.25 822.32">
  <defs>
    <style>
      .cls-1 {
        fill: #9e6427;
      }

      .cls-1, .cls-2, .cls-3, .cls-4, .cls-5, .cls-6, .cls-7 {
        stroke: #231f20;
        stroke-miterlimit: 10;
      }

      .cls-2 {
        fill: #cececd;
      }

      .cls-3 {
        fill: #fff;
      }

      .cls-8, .cls-6 {
        fill: #231f20;
      }

      .cls-4 {
        fill: #925d25;
      }

      .cls-7 {
        fill: none;
      }
    </style>
  </defs>
  <path class="cls-1" d="M649.96,414.47c-5.35,63.9-43.95,117.42-96.01,149.57-24.37,15.05-51.7,25.41-79.94,29.95-7.84,1.27-15.75,2.09-23.67,2.43-10.7.47-21.39.06-31.98-1.14-29.51-3.32-58.17-12.89-83.85-27.48-56.99-32.36-99.35-89.39-103.62-157.75-7.31-116.72,99.52-216.41,216.16-212.86,113.41,3.49,212.42,103.85,202.92,217.28Z"/>
  <path class="cls-3" d="M377.5,122.07c.06-.05-.02-.21-.21-1.12-.13-.62-.22-1.15-.27-1.53,0,0-.59-3.39-1.01-6.81-2.13-17.32-.08-34.06-.08-34.06.51-4.16,1.2-9.81,3.15-16.78,2.39-8.53,7.62-26.37,23.6-40.91,2.35-2.14,12.5-11.09,28.84-16.26,6.7-2.12,30.87-9.35,56.11,2.62,15.03,7.13,23.44,17.75,26.75,22.03,17.19,22.23,16.81,49.68,16.78,60.83-.04,13.87-2.43,30.08-.52,30.42,1.43.26,2.47-9.01,8.92-11.54,4.03-1.58,9.34-.2,12.59,2.62,10.68,9.28.28,35.24-1.57,39.86,0,0-4.21,10.51-14.68,19.93-2.72,2.45-5.56,4.49-7.87,3.67-3.28-1.17-3.58-7.44-4.2-7.34-.77.12.81,9.71,0,20.98-.43,5.98-.78,10.27-3.15,15.21-1.51,3.14-3.33,5.5-9.44,11.54-8.34,8.26-12.52,12.38-17.31,15.73-4.69,3.28-12.32,8.52-23.6,11.54-4.84,1.3-11.46,3.07-19.93,2.1-3.99-.46-8.01-1.48-21.5-7.87-12.48-5.91-18.72-8.86-22.55-11.54-7.6-5.31-19.79-13.83-24.65-28.32-2.21-6.6-5.55-27.28-4.2-20.45-2.65-.68-6.25-2.07-8.92-5.24-2.69-3.21-2.72-6.22-4.8-12-2.13-5.93-3.41-6.41-5.69-11.6-.82-1.87-6.39-15.01-3.15-29.89.68-3.12,2.29-10.53,5.77-11.01,1.72-.24,4.32,2.46,9.44,7.87,3.15,3.32,6.98,7.63,7.34,7.34Z"/>
  <path class="cls-1" d="M548.08,796.47c-1.44.66-15.64,6.79-24.39.42-14.73-10.67,6.19-41.9,1.94-93.85-1.88-22.87-7.63-37.67-9.24-48.77-23.44-13.93-39.84-40.78-42.38-60.29,28.24-4.54,55.57-14.9,79.94-29.95,17.14,13.08,28.01,54.47,20.95,79.61,22.45,39.72,12.43,135.26-26.82,152.83Z"/>
  <path class="cls-3" d="M234.52,359.75c-8.93,6.35-16.49.16-27.48,6.07-9.82,5.29-4.76,13.45-17.54,26.26-3.24,3.25-7.41,6.69-11.85,13.48-1.73,2.64-3.28,5.43-5.09,9.43-3.48,7.7-8.56,18.93-9.78,33.2-.88,10.11.55,17.7,2.23,26.59,1.49,7.97,3.24,13.51,4.65,17.66,1.48.13,3.02.44,4.71.98,7.57,2.43,20.56-.71,23.7,9.51,2.54,8.26,4.74,19.86-1.34,19.85-6.42-.02-20.69-1.89-24.02.04-1.77,1-1.64,4.43-.55,5.39,1.21,1.07,2.98-1.4,5.17-.37,4.53,2.16,8.84,18.56,4.59,19.6-4.25,1.06-15.61-13.59-17.97-12.31-1.94,1.04,5.69,10.8,3.06,14.9-2.02,3.15-9.56,2.14-12.97-1.43-3.84-4.01-2.06-10.84-3.17-11.35-.83-.41-1.17,3.83-3.97,7.47-2.76,3.59-7.89,6.56-10.64,4.52-1.76-1.29-2.47-4.58-2.23-6.77.69-5.89,8.44-5.22,7.64-8.41-.79-3.19-8.74-4.61-11.3-9.35-.65-1.23-1.73-4.1,4.61-11.95-8.28-5.91-8.8-20.71-9.58-49.62-.75-28.84-.97-43.58,6.56-59.26,6.46-13.43,15.47-22.32,21.45-27.37,4.83-8.68,34.52-60.94,69.41-59.81,3.41.11,13.49.44,18.87,7.36,7.43,9.58,3.23,28.31-7.17,35.7Z"/>
  <path class="cls-1" d="M371.79,716.93c5.07,51.87,31.24,78.87,18.64,91.99-7.48,7.84-22.55,4.31-24.08,3.93-47.52-11.69-75.8-129.49-44.98-160.25-12.56-21.07-3.72-66.5,13.13-84.81,25.68,14.59,54.35,24.16,83.85,27.48-3.36,21.01-22.05,49.7-48.03,62.12,4.86,11.5-1.52,29.04,1.46,59.52Z"/>
  <path class="cls-2" d="M512.47,215.53c-43.51,2.14-41.03-10.32-103.12-6.07-27.12,1.86-68.94,4.72-71.13,17.65-.64,3.77,2.62,6.93,6.07,11.58,9.34,12.61,23.85,17.14,36.95,19.85,57.42,11.91,114.7-3.86,114.7-3.86,26.63-8.88,45.91-7.85,48.53-18.2,1.18-4.65-.96-9.97-3.59-13.26-7.18-9-22.05-8-28.39-7.69Z"/>
  <g>
    <path class="cls-5" d="M391.07,163.91c33.04-28.18,78.66-24.64,106.23-12.06,5.18,2.37,12.81,5.94,20.01,13.6,3.51,3.74,17.7,19.91,15.91,63.12-1.6,38.74-3.08,74.3-32.07,97.25-38.45,30.42-103.11,21-120.08-5.64-2.72-4.27-5.34-12.51-10.58-29-4.34-13.65-7.96-25.21-9.75-40.03-1.11-9.17-2.78-21.3-.26-34.64,5.87-30.97,27.33-49.81,30.59-52.6Z"/>
    <path class="cls-3" d="M454.77,167.22c-15.89-3.79-32.76,3.15-32.59,7.44.31,7.43,52.14,14.9,54.65,7.7,1.31-3.76-10.51-12.38-22.07-15.14Z"/>
  </g>
  <path class="cls-4" d="M259.78,312.47c-6.97-5.18-19.83-10.47-29.36-4.98-1.44.83-5.02,3.18-9.06,12.02-10.66,23.31-5.35,49.81,1.17,51.48,1.15.29,6.03.77,6.41.8,2.59.25,4.46.34,5.12.38,6.53.36,11.84,1.96,14.18,2.14,10.19.79,28.76-20.4,24.65-41.46-2.35-12.02-11.08-18.87-13.1-20.38Z"/>
  <path class="cls-7" d="M401.97,80.76c17.9-12.45,37.42-9.87,43.84-.41,5.69,8.39,2.91,24.85-4.07,28.22-2.85,1.37-6.03.4-8.48,3.22-1.75,2.02-2.7,5.49-1.2,8.02,1.26,2.13,4.2,3.48,5.57,2.64.88-.54.34-1.37,1.59-2.79.85-.96,1.85-1.38,3.86-2.21.15-.06.31-.12.5-.1.85.13,1.04,1.74,1.73,3.27.4.88,1.33,2.95,2.55,3.25,2.58.64,4.85-6.99,8.68-6.81,1.47.07,2.72,1.27,4.76,3.21,2.37,2.26,2.43,3.42,3.39,3.51,2.85.28,8.04-9.52,5.23-13.08-2.15-2.73-7.13.6-10.53-2.25-3.85-3.22-3.3-12.36.71-18.22,4.79-7,13.7-8.07,21.59-9.02,5.1-.61,13.54-.9,23.77,2.24"/>
  <path class="cls-7" d="M438.25,81.34c-.03-2.53-8.04-5.03-15-4.91-7.39.13-15.72,3.26-15.59,5.86.14,2.69,9.36,4.96,17.19,4.31,5.82-.48,13.42-2.79,13.4-5.26Z"/>
  <path class="cls-7" d="M467.93,89.51c.49-3.18,12.34-3.52,20.6-3.76,11.87-.34,13.22,1.62,13.57,2.46.95,2.33-2.02,5.49-2.35,5.84-5.34,5.68-15.31,3.66-17.86,3.15-6.26-1.27-14.37-4.96-13.96-7.69Z"/>
  <path class="cls-7" d="M413.49,48.72c2.23-.55,5.79-1.26,10.2-1.38,9.87-.28,14.88,2.63,19.02-.55,2.61-2,2.08-4.27,4.69-5.24,2.68-.99,5.49.58,9.65,3.03,14.2,8.37,13.4,8.79,15.44,9.1,7.47,1.12,10.34-5.76,19.3-5.24,4.62.27,8.31,2.36,10.75,4.14"/>
  <path class="cls-7" d="M501.72,43.49c-5.2-2.29-8.87-2.07-11.3-1.38-3.16.89-4.31,2.58-7.44,2.48-2.57-.08-2.73-1.25-7.17-2.76-4.93-1.67-5.72-.57-8.55-2.21-3.38-1.96-2.85-3.89-5.79-5.24-1.61-.74-2.5-.49-9.37.28-8.43.94-10.08.89-11.3,2.48-1.71,2.23-.27,4.68-1.93,5.79-1.56,1.04-3.33-.77-8-1.93-4.64-1.16-8.59-.8-11.3-.55-2.65.24-4.82.71-6.34,1.1"/>
  <path class="cls-7" d="M415.14,33.28c4.03.35,10.17.48,17.37-1.1,6.41-1.41,6.56-2.62,12.13-3.58,3.32-.58,12.9-2.24,22.33,1.93,4.51,2,5.33,3.71,9.65,4.41,3.92.64,4.39-.59,10.75,0,4.05.37,7.42,1.2,9.1,1.65,1.45.39,2.67.79,3.58,1.1"/>
  <path class="cls-8" d="M487.07,87.48c-1.67,0-2.86,0-3.86.74-1.78,1.33-2.5,4.72-1.34,6.54,1.61,2.54,6.36,1.25,8.84-.18,1.47-.85,3.92-2.76,3.57-4.31-.27-1.21-2.13-1.77-3.89-2.3-1.4-.42-2.57-.49-3.31-.5Z"/>
  <path class="cls-8" d="M423.02,77.87c-1.34.01-2.29.02-3.08.7-1.41,1.21-1.95,4.25-1.01,5.88,1.31,2.26,5.1,1.07,7.07-.23,1.17-.77,3.11-2.51,2.81-3.9-.23-1.08-1.73-1.57-3.14-2.03-1.12-.37-2.06-.42-2.65-.42Z"/>
  <path class="cls-7" d="M530.4,106.84c-.02,1.86-.36,9.32-.4,12.16,0,.21-.57,4.04-.58,4.23,0,0-.51,4.91-.55,7.38-.2,11.65-4.62,17.78-4.41,26.54.09,3.73-.83,7.15-.83,7.15.07,1.42.13,2.6.18,3.4"/>
  <path class="cls-7" d="M373.37,161.21c-2.62-8.28-5.97-11.69-8.68-13.23-.96-.54-3.01-1.52-3.31-3.31-.27-1.62,1.1-2.62,1.77-5.97.21-1.03.25-1.79.3-2.71.35-6.6-3.14-11.44-1.65-12.82,1.07-.99,4.12.37,5.79,1.65,3.54,2.73,4.46,7.92,4.92,10.53.02.11.04.23.04.23.34,2.01.39,3.6.41,4.52.06,3.3.09,4.95-.41,5.4-1.04.95-3.25.74-4.55-.41-1.47-1.31-1.75-3.8-.41-5.79"/>
  <path class="cls-7" d="M532.58,161.19c-10.05.88-6.07-10.27,8.68-13.23,1.08-.22,3.01-1.52,3.31-3.31.27-1.62-1.1-2.62-1.77-5.97-.21-1.03-.25-1.79-.3-2.71-.35-6.6,3.14-11.44,1.65-12.82-1.07-.99-4.12.37-5.79,1.65-3.54,2.73-4.46,7.92-4.92,10.53-.02.11-.04.23-.04.23-.34,2.01-.39,3.6-.41,4.52-.06,3.3-.09,4.95.41,5.4,1.04.95,3.25.74,4.55-.41,1.47-1.31,1.75-3.8.41-5.79"/>
  <g>
    <path class="cls-6" d="M509.63,760.57c2.97-3.69,7.31-9.27,13.66-9.65,13.39-.78,18.77,22.4,31.4,21.78,10.19-.51,16.3-16.07,20.8-14.02,3.03,1.38-.12,8.25,3.47,13.23,6.03,8.38,26.34,4.33,40.96,0,23.47-6.94,28.25-22.91,39.7-20.8,15.43,2.85,29.89,36.1,19.54,52.94-8.22,13.37-24.05,3.3-92.48,9.92-21.31,2.06-46.51,5.63-67.59-6.77-5.23-3.08-10.74-7.45-13.86-14.44-4.58-10.26-2.74-23.3,4.41-32.2Z"/>
    <path class="cls-3" d="M560.52,784.84c.36-.91,7.38.84,15.44,2.84,9.17,2.28,14.98,4.56,16.07,2.84,1-1.58-3.13-4.73-2.05-6.62,1.19-2.07,8.16-1.78,9.93,1.42,1.64,2.98-1.29,8.34-4.88,10.71-11.08,7.31-35.23-9.38-34.5-11.19Z"/>
  </g>
  <g>
    <path class="cls-6" d="M311.62,766.31c1.4-1.74,5.95-7.4,13.66-9.65,22.87-6.66,48.16,26.84,55.66,20.99,3.96-3.09-1.94-13.25,2.18-16.29,6.02-4.45,19.8,16.46,38.79,16.29,19.8-.17,26.27-23.28,39.7-20.8,15.43,2.85,29.89,36.1,19.54,52.94-8.22,13.37-24.05,3.3-92.48,9.92-21.31,2.06-46.51,5.63-67.59-6.77-5.23-3.08-10.74-7.45-13.86-14.44-4.58-10.26-2.74-23.3,4.41-32.2Z"/>
    <path class="cls-3" d="M362.51,790.57c.36-.91,7.38.84,15.44,2.84,9.17,2.28,14.98,4.56,16.07,2.84,1-1.58-3.13-4.73-2.05-6.62,1.19-2.07,8.16-1.78,9.93,1.42,1.64,2.98-1.29,8.34-4.88,10.71-11.08,7.31-35.23-9.38-34.5-11.19Z"/>
  </g>
  <path class="cls-3" d="M631.46,349.89c9.51,5.44,16.42-1.47,27.94,3.33,10.29,4.29,6.06,12.92,20.05,24.4,3.55,2.92,8.03,5.92,13.12,12.24,1.99,2.45,3.8,5.07,6,8.88,4.23,7.32,10.39,17.99,13.01,32.07,1.88,9.98,1.2,17.67.41,26.68-.7,8.07-1.89,13.76-2.88,18.03-1.46.27-2.96.74-4.59,1.44-7.29,3.17-20.53,1.33-22.64,11.81-1.71,8.48-2.75,20.23,3.29,19.62,6.38-.65,20.4-3.93,23.91-2.34,1.86.82,2.07,4.25,1.08,5.31-1.1,1.18-3.11-1.1-5.18.15-4.29,2.6-6.96,19.34-2.63,19.95,4.33.64,14.19-15.07,16.66-14.03,2.03.85-4.59,11.31-1.57,15.13,2.32,2.94,9.72,1.19,12.77-2.7,3.43-4.37.98-10.99,2.03-11.6.78-.49,1.54,3.7,4.69,7.04,3.11,3.3,8.5,5.75,11.03,3.45,1.63-1.46,2.01-4.8,1.55-6.95-1.27-5.79-8.92-4.36-8.43-7.61.47-3.26,8.25-5.45,10.32-10.42.53-1.29,1.31-4.25-5.77-11.44,7.65-6.7,6.71-21.47,4.62-50.33-2.1-28.77-3.35-43.46-12.39-58.32-7.75-12.73-17.6-20.68-24.05-25.12-5.66-8.16-40.38-57.23-74.98-52.66-3.38.44-13.38,1.77-18.05,9.19-6.45,10.27-.41,28.49,10.66,34.82Z"/>
  <path class="cls-4" d="M618.5,355.9c7.51,4.37,20.87,8.19,29.74,1.67,1.34-.98,4.63-3.72,7.66-12.96,7.99-24.36-.25-50.1-6.92-51.03-1.17-.16-6.08-.09-6.46-.08-2.6.04-4.47.16-5.13.2-6.53.37-11.99-.62-14.33-.54-10.22.36-26.3,23.48-19.86,43.95,3.68,11.68,13.12,17.52,15.3,18.78Z"/>
</svg>