<?xml version="1.0" encoding="UTF-8"?>
<svg id="Layer_1" data-name="Layer 1" xmlns="http://www.w3.org/2000/svg" viewBox="0 0 978.44 817.16">
  <defs>
    <style>
      .cls-1 {
        fill: #9e6427;
      }

      .cls-1, .cls-2, .cls-3, .cls-4, .cls-5, .cls-6, .cls-7, .cls-8 {
        stroke: #231f20;
        stroke-miterlimit: 10;
      }

      .cls-2 {
        fill: #cececd;
      }

      .cls-3 {
        fill: #fff;
      }

      .cls-9, .cls-7 {
        fill: #231f20;
      }

      .cls-4 {
        fill: #925d25;
      }

      .cls-5 {
        fill: #351212;
      }

      .cls-8 {
        fill: none;
      }
    </style>
  </defs>
  <path class="cls-1" d="M645.88,411.87c-5.31,63.5-43.67,116.68-95.41,148.63-24.22,14.96-51.38,25.25-79.44,29.76-7.79,1.26-15.65,2.08-23.53,2.42-10.63.46-21.26.06-31.78-1.13-29.32-3.3-57.81-12.81-83.33-27.31-56.63-32.16-98.72-88.83-102.97-156.76-7.27-115.99,98.89-215.05,214.8-211.52,112.69,3.47,211.08,103.2,201.65,215.91Z"/>
  <path class="cls-3" d="M897.58,356.54c-9.42.75-11.67-2.37-20.65-.23-1.56.39-2.78.78-3.81,1.13-9.57,22.52-50.21,54.54-92.92,55.45-15.44.33-28.54-3.24-33.5-4.68-8.26-2.4-35.2-10.27-56.37-33.54-10.45-11.47-12.38-18.9-22.56-21.85-11.9-3.43-17.97,4.16-27.95-.14-11.65-5-19.66-22.3-14.44-33.18,3.94-8.22,14.45-10.63,16.8-11.11,18.51-3.77,38.81,11.5,78.68,42.19.61.47,1.09.85,1.43,1.09.6.4,1.57,1.01,2.76,1.72,10.7,6.5,54.42,33.12,91.42,18.45,6.58-2.6,17.62-6.98,23.19-17.63,4.09-7.8,2.78-14.38,4.71-18.48-.29-8.51,4.88-15.1,7.12-18.01,8.78-11.22,17.39-8.14,35.71-17.38,1.49-.77,5.15-2.65,7.96-1.16,1.52.83,2.84,2.66,2.52,4.23-.34,1.75-2.63,2.68-7.97,4.24-10.03,2.92-11.14,2.35-15.04,4.01-6.35,2.73-11.56,7.73-10.85,9.2.46.97,3.58.43,6.15,0,4.54-.78,7.84-2.25,8.93-2.78,12.01-5.47,15.43-8.33,21.06-7.73.42.06,3.62.42,3.73,1.39.05.4-.37,1.17-6.9,3.54-5.56,2.01-5.88,1.71-9.26,3.03-5.93,2.34-5.44,3.54-9.94,4.76-3.82,1.06-6.48.84-6.94,2.28-.48,1.38,1.45,3.17,1.76,3.45,7.78,7.21,38.95-10.84,42.51-5.5.77,1.17-.48,2.26.45,6.89.56,2.82,1.35,4.07.67,5.71-.59,1.42-2.19,2.85-3.59,2.65-2.56-.38-1.49-5.9-4.74-8.69-3.54-3.04-8.36.39-28.48,7.75-.97.36-2.76,1-2.92,2.19-.3,2.19,5.29,5.27,10.41,6.44,11.42,2.64,20.78-1.91,20.78-1.91,1.66-.8,3.93-2.13,6.47-1.44,2.05.55,4.39,2.42,4.37,4.29-.01,4.03-10.84,8.54-20.76,9.34Z"/>
  <path class="cls-3" d="M375.13,121.31c.06-.05-.02-.21-.21-1.11-.13-.62-.22-1.14-.27-1.52,0,0-.58-3.37-1-6.77-2.12-17.21-.08-33.85-.08-33.85.51-4.13,1.19-9.75,3.13-16.68,2.37-8.47,7.57-26.2,23.45-40.65,2.34-2.13,12.42-11.02,28.66-16.16,6.66-2.1,30.68-9.29,55.76,2.61,14.94,7.09,23.29,17.63,26.58,21.89,17.08,22.09,16.71,49.37,16.68,60.45-.04,13.78-2.41,29.89-.52,30.23,1.42.26,2.45-8.96,8.86-11.46,4-1.57,9.28-.19,12.51,2.61,10.62,9.22.28,35.02-1.56,39.61,0,0-4.19,10.45-14.59,19.8-2.71,2.43-5.52,4.46-7.82,3.65-3.26-1.16-3.56-7.39-4.17-7.3-.76.12.8,9.65,0,20.85-.42,5.94-.77,10.21-3.13,15.11-1.5,3.12-3.31,5.46-9.38,11.46-8.29,8.2-12.44,12.31-17.2,15.63-4.66,3.26-12.24,8.46-23.45,11.46-4.81,1.29-11.39,3.05-19.8,2.08-3.96-.45-7.96-1.47-21.37-7.82-12.4-5.87-18.61-8.81-22.41-11.46-7.55-5.28-19.66-13.74-24.49-28.14-2.2-6.56-5.52-27.11-4.17-20.32-2.63-.68-6.21-2.06-8.86-5.21-2.68-3.19-2.71-6.18-4.77-11.92-2.12-5.89-3.39-6.37-5.65-11.53-.82-1.86-6.35-14.92-3.13-29.7.68-3.1,2.28-10.46,5.73-10.94,1.71-.24,4.29,2.44,9.38,7.82,3.13,3.3,6.93,7.58,7.3,7.3Z"/>
  <path class="cls-1" d="M544.63,791.47c-1.43.65-15.54,6.74-24.24.42-14.64-10.61,6.15-41.63,1.93-93.26-1.87-22.73-7.58-37.43-9.18-48.46-23.29-13.84-39.59-40.52-42.12-59.91,28.06-4.52,55.22-14.81,79.44-29.76,17.04,13,27.83,54.13,20.82,79.11,22.31,39.47,12.35,134.41-26.66,151.87Z"/>
  <path class="cls-3" d="M214.8,345.08c-7.07-8.27-1.61-16.31-8.44-26.66-6.1-9.25-13.74-3.52-27.54-15.04-3.51-2.92-7.27-6.74-14.39-10.54-2.76-1.48-5.66-2.77-9.78-4.21-7.93-2.77-19.49-6.81-33.72-6.75-10.09.02-17.47,2.11-26.12,4.55-7.75,2.18-13.08,4.4-17.07,6.16,0,1.47-.17,3.03-.55,4.74-1.74,7.71,2.52,20.28-7.32,24.3-7.96,3.25-19.24,6.45-19.76.43-.55-6.35.04-20.64-2.16-23.77-1.15-1.66-4.53-1.23-5.38-.07-.95,1.29,1.65,2.83.82,5.08-1.74,4.67-17.59,10.39-18.99,6.27-1.43-4.11,12.07-16.65,10.6-18.87-1.2-1.82-10.19,6.58-14.48,4.34-3.3-1.72-2.96-9.27.27-12.97,3.63-4.16,10.55-2.99,10.95-4.14.33-.85-3.9-.82-7.74-3.27-3.8-2.42-7.19-7.23-5.42-10.13,1.12-1.86,4.31-2.85,6.5-2.8,5.89.16,5.91,7.9,9,6.82,3.09-1.06,3.79-9.06,8.25-12.01,1.16-.76,3.9-2.07,12.24,3.51,5.12-8.72,19.72-10.54,48.27-13.86,28.48-3.29,43.05-4.8,59.24,1.26,13.86,5.21,23.46,13.34,28.99,18.81,9.02,4.01,63.37,28.79,65.33,63.42.2,3.38.76,13.39-5.62,19.33-8.83,8.2-27.74,5.69-35.97-3.94Z"/>
  <path class="cls-1" d="M369.45,712.43c5.04,51.55,31.05,78.37,18.53,91.41-7.44,7.79-22.41,4.28-23.92,3.91-47.22-11.62-75.32-128.68-44.7-159.24-12.48-20.94-3.7-66.08,13.04-84.27,25.52,14.49,54,24.01,83.33,27.31-3.34,20.88-21.91,49.38-47.72,61.73,4.83,11.43-1.51,28.86,1.45,59.15Z"/>
  <path class="cls-2" d="M509.25,214.18c-43.24,2.13-40.77-10.25-102.47-6.03-26.95,1.85-68.51,4.69-70.69,17.53-.63,3.74,2.6,6.88,6.03,11.51,9.28,12.53,23.7,17.03,36.71,19.73,57.06,11.83,113.98-3.84,113.98-3.84,26.46-8.82,45.62-7.8,48.22-18.08,1.17-4.62-.96-9.9-3.57-13.18-7.13-8.94-21.91-7.95-28.21-7.64Z"/>
  <g>
    <path class="cls-6" d="M388.61,162.88c32.84-28.01,78.17-24.49,105.56-11.98,5.15,2.35,12.73,5.9,19.89,13.51,3.49,3.71,17.59,19.78,15.81,62.72-1.59,38.5-3.06,73.84-31.87,96.64-38.21,30.23-102.47,20.87-119.33-5.61-2.7-4.24-5.3-12.43-10.51-28.82-4.31-13.57-7.91-25.05-9.69-39.78-1.1-9.11-2.76-21.17-.25-34.42,5.83-30.78,27.16-49.5,30.4-52.26Z"/>
    <path class="cls-3" d="M451.92,166.17c-15.79-3.76-32.56,3.13-32.38,7.39.31,7.38,51.81,14.8,54.31,7.65,1.31-3.74-10.44-12.3-21.93-15.04Z"/>
  </g>
  <path class="cls-4" d="M258.14,310.51c-6.93-5.15-19.7-10.41-29.18-4.95-1.43.82-4.99,3.16-9,11.94-10.59,23.17-5.32,49.5,1.16,51.16,1.14.29,6,.76,6.37.8,2.57.25,4.43.34,5.09.37,6.49.36,11.77,1.94,14.09,2.12,10.13.78,28.58-20.27,24.49-41.19-2.33-11.95-11.01-18.76-13.02-20.25Z"/>
  <path class="cls-4" d="M614.61,353.67c7.46,4.35,20.74,8.14,29.55,1.66,1.33-.98,4.6-3.7,7.61-12.87,7.94-24.21-.25-49.78-6.87-50.71-1.16-.16-6.04-.09-6.42-.08-2.58.04-4.44.16-5.1.2-6.49.37-11.91-.62-14.24-.53-10.15.36-26.13,23.34-19.73,43.68,3.65,11.61,13.04,17.41,15.2,18.67Z"/>
  <path class="cls-8" d="M399.45,80.25c17.79-12.37,37.18-9.81,43.56-.4,5.66,8.34,2.89,24.69-4.05,28.04-2.83,1.37-6,.4-8.43,3.2-1.74,2-2.69,5.46-1.2,7.97,1.26,2.12,4.17,3.45,5.54,2.62.87-.53.33-1.36,1.58-2.78.84-.95,1.84-1.37,3.83-2.19.15-.06.31-.12.5-.09.84.13,1.03,1.73,1.72,3.25.39.87,1.32,2.93,2.54,3.23,2.57.64,4.82-6.95,8.62-6.77,1.46.07,2.71,1.26,4.73,3.19,2.36,2.25,2.42,3.39,3.36,3.49,2.83.28,7.99-9.46,5.2-12.99-2.14-2.71-7.08.59-10.46-2.24-3.83-3.2-3.28-12.29.7-18.1,4.76-6.96,13.61-8.02,21.45-8.96,5.07-.61,13.45-.9,23.62,2.22"/>
  <path class="cls-8" d="M435.49,80.83c-.03-2.51-7.99-5-14.91-4.88-7.34.13-15.62,3.24-15.49,5.82.13,2.67,9.31,4.93,17.08,4.29,5.79-.48,13.34-2.77,13.31-5.22Z"/>
  <path class="cls-8" d="M464.99,88.96c.48-3.16,12.26-3.5,20.47-3.74,11.79-.34,13.14,1.61,13.48,2.45.95,2.31-2.01,5.45-2.34,5.81-5.31,5.64-15.21,3.64-17.74,3.13-6.22-1.26-14.28-4.93-13.87-7.64Z"/>
  <path class="cls-8" d="M410.89,48.42c2.22-.54,5.75-1.25,10.14-1.37,9.81-.27,14.78,2.62,18.9-.55,2.59-1.99,2.07-4.25,4.66-5.21,2.67-.99,5.46.58,9.59,3.01,14.11,8.31,13.31,8.74,15.34,9.04,7.42,1.11,10.27-5.72,19.18-5.21,4.59.27,8.26,2.34,10.69,4.11"/>
  <path class="cls-8" d="M498.56,43.22c-5.17-2.28-8.81-2.06-11.23-1.37-3.14.89-4.28,2.57-7.4,2.47-2.56-.08-2.71-1.24-7.12-2.74-4.9-1.66-5.69-.57-8.49-2.19-3.36-1.95-2.83-3.87-5.75-5.21-1.6-.74-2.48-.48-9.32.27-8.38.93-10.02.88-11.23,2.47-1.7,2.22-.27,4.65-1.92,5.75-1.55,1.03-3.31-.76-7.95-1.92-4.61-1.15-8.54-.79-11.23-.55-2.63.24-4.79.7-6.3,1.1"/>
  <path class="cls-8" d="M412.53,33.08c4.01.35,10.11.48,17.26-1.1,6.37-1.4,6.52-2.6,12.06-3.56,3.3-.57,12.82-2.23,22.19,1.92,4.48,1.98,5.29,3.68,9.59,4.38,3.9.63,4.36-.59,10.69,0,4.03.37,7.37,1.19,9.04,1.64,1.45.39,2.66.78,3.56,1.1"/>
  <path class="cls-9" d="M484.01,86.93c-1.66,0-2.85,0-3.84.74-1.77,1.33-2.48,4.69-1.33,6.5,1.6,2.52,6.32,1.24,8.78-.18,1.46-.84,3.89-2.75,3.54-4.29-.27-1.2-2.12-1.76-3.87-2.28-1.39-.42-2.55-.49-3.28-.49Z"/>
  <path class="cls-9" d="M420.36,77.38c-1.33.01-2.28.02-3.06.69-1.41,1.2-1.94,4.23-1.01,5.84,1.31,2.25,5.07,1.06,7.03-.23,1.16-.77,3.09-2.5,2.8-3.87-.23-1.07-1.72-1.56-3.12-2.02-1.12-.36-2.05-.42-2.63-.41Z"/>
  <path class="cls-8" d="M527.07,106.17c-.02,1.85-.35,9.26-.39,12.09,0,.21-.57,4.01-.57,4.21,0,0-.51,4.88-.55,7.33-.2,11.58-4.59,17.67-4.38,26.37.09,3.71-.82,7.11-.82,7.11.07,1.41.13,2.58.18,3.38"/>
  <path class="cls-8" d="M371.03,160.2c-2.61-8.23-5.93-11.62-8.63-13.15-.95-.54-2.99-1.51-3.29-3.29-.27-1.61,1.09-2.6,1.76-5.94.21-1.03.25-1.78.29-2.7.35-6.56-3.12-11.37-1.64-12.74,1.06-.99,4.1.36,5.75,1.64,3.51,2.71,4.43,7.87,4.89,10.46.02.11.04.22.04.22.34,1.99.39,3.57.4,4.5.06,3.28.09,4.92-.4,5.37-1.04.94-3.23.74-4.52-.41-1.46-1.3-1.74-3.78-.41-5.75"/>
  <path class="cls-8" d="M529.23,160.18c-9.99.88-6.03-10.2,8.63-13.15,1.07-.22,2.99-1.51,3.29-3.29.27-1.61-1.09-2.6-1.76-5.94-.21-1.03-.25-1.78-.29-2.7-.35-6.56,3.12-11.37,1.64-12.74-1.06-.99-4.1.36-5.75,1.64-3.51,2.71-4.43,7.87-4.89,10.46-.02.11-.04.22-.04.22-.34,1.99-.39,3.57-.4,4.5-.06,3.28-.09,4.92.4,5.37,1.04.94,3.23.74,4.52-.41,1.46-1.3,1.74-3.78.41-5.75"/>
  <g>
    <path class="cls-7" d="M506.43,755.8c2.95-3.67,7.26-9.21,13.58-9.58,13.3-.78,18.65,22.26,31.2,21.64,10.12-.5,16.2-15.97,20.67-13.93,3.01,1.37-.12,8.2,3.44,13.15,5.99,8.32,26.17,4.3,40.71,0,23.33-6.9,28.07-22.77,39.45-20.67,15.34,2.83,29.7,35.88,19.41,52.6-8.17,13.29-23.9,3.27-91.9,9.85-21.18,2.05-46.22,5.59-67.17-6.72-5.2-3.06-10.68-7.4-13.78-14.35-4.55-10.19-2.73-23.15,4.38-32Z"/>
    <path class="cls-3" d="M557,779.91c.36-.9,7.33.83,15.34,2.82,9.11,2.26,14.89,4.53,15.97,2.82.99-1.57-3.12-4.7-2.04-6.58,1.18-2.05,8.11-1.77,9.86,1.41,1.63,2.96-1.28,8.29-4.85,10.65-11.01,7.27-35.01-9.32-34.29-11.12Z"/>
  </g>
  <g>
    <path class="cls-7" d="M309.66,761.5c1.39-1.73,5.91-7.35,13.58-9.58,22.73-6.62,47.85,26.67,55.31,20.86,3.94-3.07-1.92-13.17,2.16-16.19,5.98-4.43,19.67,16.36,38.54,16.19,19.67-.17,26.1-23.13,39.45-20.67,15.34,2.83,29.7,35.88,19.41,52.6-8.17,13.29-23.9,3.27-91.9,9.85-21.18,2.05-46.22,5.59-67.17-6.72-5.2-3.06-10.68-7.4-13.78-14.35-4.55-10.19-2.73-23.15,4.38-32Z"/>
    <path class="cls-3" d="M360.23,785.61c.36-.9,7.33.83,15.34,2.82,9.11,2.26,14.89,4.53,15.97,2.82.99-1.57-3.12-4.7-2.04-6.58,1.18-2.05,8.11-1.77,9.86,1.41,1.63,2.96-1.28,8.29-4.85,10.65-11.01,7.27-35.01-9.32-34.29-11.12Z"/>
  </g>
  <g>
    <path class="cls-3" d="M918.92,329.34c.15,2.37.64,5.84,2.23,9.72.22.54,3.3,7.89,9.28,12.47,9.58,7.34,26.77,7.74,37.81-2.26,11.63-10.53,9.66-26.34,9.45-27.81"/>
    <path class="cls-3" d="M918.95,328.81c-.71-2.23,13.84-8.62,29.81-10.14,13.93-1.32,28.86,1.09,29.04,3.63.17,2.34-12.08,4.67-17.8,5.75-11.07,2.11-19.67,2.01-29.64,1.85-7.41-.12-11.13-.2-11.41-1.1Z"/>
    <path class="cls-3" d="M918.2,333.78c-.67-.49-1.37-.62-1.87-.7-2.75-.4,4.07-.78,2.88.34-2.25,2.11-9.5,10.29-4.01,14.43,4.46,3.37,10.81,3.87,11.52,2.46.28-.56-.41-1.24-1.75-3.37-1.57-2.49-2.5-4.25-3.35-6.48-.64-1.68-1.14-2.79-2.14-5.01-.17-.37-.51-1.11-1.28-1.67Z"/>
    <path class="cls-5" d="M920.84,327.51c-.04-.98,4.59-1.05,5.21-1.16,3.94-.74,5.74-.82,9.19-1.32.39-.06.94-.15,1.83-.25,1.33-.15,2.87-1.15,3.15-1.17,2.11-.1,4.32.36,5.76.11,1.48-.26,16.91-2.04,11.94-1.75-.26.01,6.4-.36,13.68-.48,2.54-.04,4.5-.04,4.58.41.15.8-5.87,2.5-6.49,2.67-2.62.73-4.67,1.07-5.64,1.23-8.03,1.32-12.04,1.98-14.45,2.19-3.32.3-5.8.37-10.43.48-2.64.06-3.96.1-4.76,0-.29-.04-1.21-.17-2.44-.11-.61.03-1.06.09-1.26.12-2.11.29-5.25.96-8.6-.14-.65-.21-1.26-.47-1.27-.82Z"/>
  </g>
</svg>