<?xml version="1.0" encoding="UTF-8"?>
<svg id="Layer_1" data-name="Layer 1" xmlns="http://www.w3.org/2000/svg" viewBox="0 0 892.73 754.17">
  <defs>
    <style>
      .cls-1 {
        fill: #9e6427;
      }

      .cls-1, .cls-2, .cls-3, .cls-4, .cls-5, .cls-6 {
        stroke: #231f20;
        stroke-miterlimit: 10;
      }

      .cls-2 {
        fill: #7f7f7f;
      }

      .cls-3 {
        fill: #474747;
      }

      .cls-4 {
        fill: #37b34a;
      }

      .cls-5 {
        fill: #84817f;
      }

      .cls-6 {
        fill: none;
      }
    </style>
  </defs>
  <path class="cls-2" d="M105.79,6.46h684.37c10.74,0,19.45,8.72,19.45,19.45v375.08H86.33V25.91c0-10.74,8.72-19.45,19.45-19.45Z" transform="translate(-3.49 7.87) rotate(-1)"/>
  <path class="cls-5" d="M823.51,518.21c2.12,17.01,4.97,43.21,6.78,75.41,2.31,41.26,8.5,73.51,6.25,81.66-15.91,57.87-193.93,42.1-412.58,45.56-247.65,3.91-360.62,29.89-386.19-25.21-3.23-6.96,3.53-32.49,21.99-144.03,10.25-61.95,21.5-111.95,29.32-144.28,241.06-4.22,482.11-8.43,723.17-12.65,3.75,41.18,7.51,82.37,11.26,123.55Z"/>
  <g>
    <polygon class="cls-3" points="714.93 639.89 149.28 650.11 183.46 421.85 683.83 416.81 714.93 639.89"/>
    <path class="cls-1" d="M194.75,425.37c158.49-2.29,316.99-4.58,475.48-6.88"/>
    <path class="cls-1" d="M683.46,473.28c-163.6,1.63-327.19,3.25-490.79,4.88"/>
    <path class="cls-1" d="M178.6,534.1c174.22-2.79,348.44-5.59,522.66-8.38"/>
    <path class="cls-1" d="M303.13,423.8c.29,17.75.58,35.51.87,53.26"/>
    <path class="cls-1" d="M367.42,423.34c.59,16.8,1.17,33.61,1.76,50.41"/>
    <path class="cls-1" d="M438.52,421.84c.89,17.95,1.78,35.9,2.67,53.85"/>
    <path class="cls-1" d="M507.41,420.85c1.33,17.37,2.66,34.75,3.98,52.12"/>
    <path class="cls-1" d="M269.2,479.34c-.99,18.4-1.99,36.8-2.99,55.19"/>
    <path class="cls-1" d="M230.9,536.86c0,16.67,0,33.34,0,50.01"/>
    <path class="cls-1" d="M410.08,477.73c.3,17.24.6,34.47.9,51.71"/>
    <path class="cls-1" d="M481.62,476.91c-.43,17.46-.85,34.91-1.28,52.37"/>
    <path class="cls-1" d="M555.33,475.19c.01,17.63.03,35.26.04,52.89"/>
    <path class="cls-1" d="M199.55,534.72c158.49-2.29,316.99-4.58,475.48-6.88"/>
    <path class="cls-1" d="M707.2,584.43c-179.29,1.9-370.66.57-549.95,2.47"/>
    <path class="cls-1" d="M714.93,639.89c-179.63,2.65-387.44,7.05-567.07,9.7"/>
    <path class="cls-1" d="M307.93,533.16c.29,17.75.58,35.51.87,53.26"/>
    <path class="cls-1" d="M372.22,532.69c.59,16.8,1.17,33.61,1.76,50.41"/>
    <path class="cls-1" d="M443.31,531.2c.89,17.95,1.78,35.9,2.67,53.85"/>
    <path class="cls-1" d="M512.21,530.2c1.33,17.37,2.66,34.75,3.98,52.12"/>
    <path class="cls-1" d="M273.99,588.7c-.99,18.4-1.99,36.8-2.99,55.19"/>
    <path class="cls-1" d="M202.44,586.96c-.99,18.4-1.99,36.8-2.99,55.19"/>
    <path class="cls-1" d="M346.83,587c0,16.67,0,33.34,0,50.01"/>
    <path class="cls-1" d="M414.88,587.09c.3,17.24.6,34.47.9,51.71"/>
    <path class="cls-1" d="M486.42,586.27c-.43,17.46-.85,34.91-1.28,52.37"/>
    <path class="cls-1" d="M576.01,584.54c.01,17.63.03,35.26.04,52.89"/>
    <path class="cls-1" d="M653.91,580.19c.01,17.63.03,35.26.04,52.89"/>
    <path class="cls-1" d="M608.49,528.81c.01,17.63.03,35.26.04,52.89"/>
    <path class="cls-1" d="M651.61,473.78c.01,17.63.03,35.26.04,52.89"/>
    <path class="cls-1" d="M606.15,420.07c.01,17.63.03,35.26.04,52.89"/>
    <polygon class="cls-6" points="714.93 639.89 147.86 649.59 183.46 421.85 683.83 416.81 714.93 639.89"/>
  </g>
  <path class="cls-4" d="M141.12,36.55h613.71c7.56,0,13.7,6.14,13.7,13.7v320.65H127.43V50.25c0-7.56,6.14-13.7,13.7-13.7Z" transform="translate(-3.49 7.87) rotate(-1)"/>
</svg>